<svg width="26" height="26" viewBox="0 0 26 26" fill="none" xmlns="http://www.w3.org/2000/svg">
<path d="M10.9998 0H1.00008C0.447686 0 0 0.447686 0 1.00008V10.9998C0 11.5522 0.447686 11.9999 1.00008 11.9999H10.9998C11.5522 11.9999 11.9999 11.5522 11.9999 10.9998V1.00008C11.9999 0.447686 11.5522 0 10.9998 0Z" fill="#C2A57B"/>
<path d="M24.9998 0H15.0001C14.4477 0 14 0.447686 14 1.00008V10.9998C14 11.5522 14.4477 11.9999 15.0001 11.9999H24.9998C25.5522 11.9999 25.9999 11.5522 25.9999 10.9998V1.00008C25.9999 0.447686 25.5522 0 24.9998 0ZM23.9998 9.99975H16.0002V2.00016H23.9998V9.99975Z" fill="#C2A57B"/>
<path d="M10.9998 14.0001H1.00008C0.447686 14.0001 0 14.4478 0 15.0002V24.9999C0 25.5523 0.447686 26 1.00008 26H10.9998C11.5522 26 11.9999 25.5523 11.9999 24.9999V15.0002C11.9999 14.4467 11.5522 14.0001 10.9998 14.0001ZM4.72261 23.9998C4.89463 23.7049 5.00041 23.3662 5.00041 22.9997C5.00041 21.895 4.10504 20.9996 3.00025 20.9996C2.63376 20.9996 2.29506 21.1054 2.00016 21.2774V18.7227C2.29506 18.8947 2.63376 19.0005 3.00025 19.0005C4.10504 19.0005 5.00041 18.1051 5.00041 17.0003C5.00041 16.6338 4.89463 16.2951 4.72261 16.0002H7.27731C7.10529 16.2951 6.99951 16.6338 6.99951 17.0003C6.99951 18.1051 7.89488 19.0005 8.99967 19.0005C9.36615 19.0005 9.70486 18.8947 9.99975 18.7227V21.2774C9.70486 21.1054 9.36615 20.9996 8.99967 20.9996C7.89488 20.9996 6.99951 21.895 6.99951 22.9997C6.99951 23.3662 7.10529 23.7049 7.27731 23.9998H4.72261Z" fill="#C2A57B"/>
<path d="M24.9998 14.0001H15.0001C14.4477 14.0001 14 14.4478 14 15.0002V19.9995V24.9988C14 25.5512 14.4477 25.9989 15.0001 25.9989H19.9994H24.9988C25.5512 25.9989 25.9989 25.5512 25.9989 24.9988V14.9991C25.9999 14.4467 25.5522 14.0001 24.9998 14.0001ZM16.0002 20.4141L20.414 16.0002H22.5862L16.0002 22.5863V20.4141ZM16.0002 16.0002H17.5858L16.0002 17.5858V16.0002ZM23.9998 17.4138V19.5849L19.5859 23.9998H17.4137L23.9998 17.4138ZM23.9998 23.9998H22.4131L23.9998 22.4132V23.9998Z" fill="#C2A57B"/>
<path d="M6.00016 21.9997C7.10482 21.9997 8.00033 21.1042 8.00033 19.9995C8.00033 18.8948 7.10482 17.9993 6.00016 17.9993C4.8955 17.9993 4 18.8948 4 19.9995C4 21.1042 4.8955 21.9997 6.00016 21.9997Z" fill="#C2A57B"/>
</svg>
