<svg width="28" height="28" viewBox="0 0 28 28" fill="none" xmlns="http://www.w3.org/2000/svg">
<path d="M19.8335 11.6667C17.9038 11.6667 16.3335 10.0963 16.3335 8.16667C16.3335 6.23701 17.9038 4.66667 19.8335 4.66667C21.7632 4.66667 23.3335 6.23701 23.3335 8.16667C23.3335 10.0963 21.7632 11.6667 19.8335 11.6667ZM19.8335 6.41667C18.8687 6.41667 18.0835 7.20184 18.0835 8.16667C18.0835 9.13151 18.8687 9.91667 19.8335 9.91667C20.7983 9.91667 21.5835 9.13151 21.5835 8.16667C21.5835 7.20184 20.7983 6.41667 19.8335 6.41667Z" fill="#C2A57B"/>
<path d="M19.8335 15.1667C15.973 15.1667 12.8335 12.0272 12.8335 8.16667C12.8335 4.30617 15.973 1.16667 19.8335 1.16667C23.694 1.16667 26.8335 4.30617 26.8335 8.16667V9.04167C26.8335 10.4883 25.6563 11.6667 24.2085 11.6667C22.7607 11.6667 21.5835 10.4883 21.5835 9.04167V5.54167C21.5835 5.05867 21.9755 4.66667 22.4585 4.66667C22.9415 4.66667 23.3335 5.05867 23.3335 5.54167V9.04167C23.3335 9.52351 23.7255 9.91667 24.2085 9.91667C24.6915 9.91667 25.0835 9.52351 25.0835 9.04167V8.16667C25.0835 5.27217 22.728 2.91667 19.8335 2.91667C16.939 2.91667 14.5835 5.27217 14.5835 8.16667C14.5835 11.0612 16.939 13.4167 19.8335 13.4167C20.3165 13.4167 20.7085 13.8087 20.7085 14.2917C20.7085 14.7747 20.3165 15.1667 19.8335 15.1667Z" fill="#C2A57B"/>
<path d="M9.33333 18.6667C8.0465 18.6667 7 17.6202 7 16.3333C7 15.0465 8.0465 14 9.33333 14C10.6202 14 11.6667 15.0465 11.6667 16.3333C11.6667 17.6202 10.6202 18.6667 9.33333 18.6667Z" fill="#C2A57B"/>
<path d="M13.1248 24.5H5.5415C5.0585 24.5 4.6665 24.108 4.6665 23.625V23.0417C4.6665 21.2718 6.105 19.8333 7.87483 19.8333H10.7915C12.5613 19.8333 13.9998 21.2718 13.9998 23.0417V23.625C13.9998 24.108 13.6078 24.5 13.1248 24.5Z" fill="#C2A57B"/>
<path d="M16.3333 16.8117V23.3333H2.33333V3.5C2.33333 2.85833 2.85833 2.33333 3.5 2.33333H12.565C13.3117 1.38833 14.245 0.595 15.3067 0.0116667C15.26 0 15.2133 0 15.1667 0H3.5C1.575 0 0 1.575 0 3.5V24.5C0 26.425 1.575 28 3.5 28H15.1667C17.0917 28 18.6667 26.425 18.6667 24.5V17.43C17.85 17.325 17.0683 17.115 16.3333 16.8117Z" fill="#C2A57B"/>
</svg>
