<svg width="28" height="24" viewBox="0 0 28 24" fill="none" xmlns="http://www.w3.org/2000/svg">
<path d="M13.9997 5.35678L4.01361 13.5892C4.01361 13.6009 4.01069 13.618 4.00485 13.6413C3.99914 13.6644 3.99609 13.6812 3.99609 13.6931V22.0293C3.99609 22.3303 4.10614 22.5912 4.32616 22.8108C4.54612 23.0306 4.8066 23.1412 5.10765 23.1412H11.7765V16.472H16.223V23.1414H22.8917C23.1927 23.1414 23.4536 23.0311 23.6732 22.8108C23.8933 22.5914 24.0037 22.3304 24.0037 22.0293V13.6931C24.0037 13.6469 23.9973 13.6119 23.9861 13.5892L13.9997 5.35678Z" fill="#C2A57B"/>
<path d="M27.8069 11.7135L24.0037 8.55262V1.46667C24.0037 1.30468 23.9516 1.17146 23.8471 1.0672C23.7434 0.963058 23.6102 0.910987 23.4479 0.910987H20.1134C19.9512 0.910987 19.8181 0.963058 19.7137 1.0672C19.6097 1.17146 19.5576 1.30474 19.5576 1.46667V4.85328L15.3201 1.31022C14.95 1.00917 14.5099 0.858673 14.0004 0.858673C13.491 0.858673 13.051 1.00917 12.6805 1.31022L0.192988 11.7135C0.0772275 11.8059 0.0137816 11.9304 0.00198048 12.0867C-0.00975977 12.2429 0.0306924 12.3794 0.123459 12.4951L1.20022 13.7803C1.29298 13.8845 1.4144 13.9481 1.56495 13.9714C1.70395 13.9831 1.84295 13.9425 1.98195 13.8499L14.0001 3.82859L26.0183 13.8498C26.1111 13.9306 26.2325 13.971 26.383 13.971H26.4352C26.5855 13.9481 26.7067 13.884 26.8 13.7801L27.8769 12.495C27.9694 12.3791 28.01 12.2429 27.998 12.0865C27.9861 11.9306 27.9224 11.8061 27.8069 11.7135Z" fill="#C2A57B"/>
</svg>
