<svg width="28" height="24" viewBox="0 0 28 24" fill="none" xmlns="http://www.w3.org/2000/svg">
<path d="M1.93512 9.86128L5.06614 8.21519L8.19716 9.86128L7.59921 6.37479L9.53307 4.48977L11.4669 6.37479L10.869 9.86128L14 8.21519L17.131 9.86128L16.5331 6.37479L18.467 4.48977L20.4008 6.37479L19.8028 9.86128L22.9339 8.21519L26.0649 9.86128L25.467 6.37479L28 3.9057L24.4994 3.39705L22.9339 0.22496L21.3684 3.39705L18.467 3.81864L15.5655 3.39705L14 0.22496L12.4345 3.39705L9.53307 3.81864L6.63163 3.39705L5.06614 0.22496L3.5006 3.39705L0 3.9057L2.53307 6.37479L1.93512 9.86128Z" fill="#C2A57B"/>
<path d="M0 23.7751H28V11.6345H0V23.7751ZM11.6667 15.1345V16.7751H7.45577V15.1345H11.6667ZM5.81514 16.7751H4.08335V15.1345H5.81514V16.7751ZM23.9167 18.6345V20.2751H4.08335V18.6345H23.9167Z" fill="#C2A57B"/>
</svg>
