<svg width="31" height="31" viewBox="0 0 31 31" fill="none" xmlns="http://www.w3.org/2000/svg">
<path d="M30.5312 27.9297L21.5645 18.9615C23.0096 16.9758 23.7869 14.5825 23.7845 12.1266C23.7845 5.69861 18.5547 0.46875 12.1266 0.46875C5.69861 0.46875 0.46875 5.69861 0.46875 12.1266C0.46875 18.5547 5.69861 23.7845 12.1266 23.7845C14.5825 23.7869 16.9758 23.0096 18.9615 21.5645L27.9297 30.5312L30.5312 27.9297ZM12.1266 20.1026C10.5489 20.1027 9.00663 19.635 7.69476 18.7586C6.38289 17.8822 5.36039 16.6364 4.75657 15.1788C4.15274 13.7212 3.99471 12.1173 4.30247 10.5699C4.61023 9.02253 5.36995 7.60116 6.48555 6.48555C7.60116 5.36995 9.02253 4.61023 10.5699 4.30247C12.1173 3.99471 13.7212 4.15274 15.1788 4.75657C16.6364 5.36039 17.8822 6.38289 18.7586 7.69476C19.635 9.00663 20.1027 10.5489 20.1026 12.1266C20.1001 14.2412 19.259 16.2685 17.7637 17.7637C16.2685 19.259 14.2412 20.1001 12.1266 20.1026Z" fill="#30475E"/>
</svg>
