<svg width="24" height="24" viewBox="0 0 24 24" fill="none" xmlns="http://www.w3.org/2000/svg">
<path d="M8.25007 22.6125V17.4375L4.38757 20.2875C5.47507 21.3 6.78757 22.0875 8.25007 22.6125Z" fill="#2A5F9E"/>
<path d="M15.75 22.6125C17.2125 22.0875 18.525 21.3 19.6125 20.2875L15.75 17.4V22.6125Z" fill="#2A5F9E"/>
<path d="M1.38757 15.75C1.50007 16.125 1.65007 16.4625 1.83757 16.8375L3.30007 15.75H1.38757Z" fill="#2A5F9E"/>
<path d="M20.7001 15.75L22.1626 16.8375C22.3126 16.5 22.4626 16.125 22.6126 15.75H20.7001Z" fill="#2A5F9E"/>
<path d="M8.8126 14.25H0.975098C1.0876 14.775 1.2376 15.2625 1.3876 15.75H3.3001L1.8376 16.8375C2.1376 17.475 2.4751 18.0375 2.8876 18.6L6.7501 15.75H8.2501V16.5L3.8626 19.725L4.3876 20.25L8.2501 17.4375V22.6125C8.7376 22.8 9.2251 22.9125 9.7501 23.025V14.25H8.8126Z" fill="white"/>
<path d="M23.025 14.25H14.25V23.025C14.775 22.9125 15.2625 22.7625 15.75 22.6125V17.4375L19.6125 20.25C20.1375 19.7625 20.5875 19.2375 21.0375 18.675L17.025 15.75H19.575L21.8625 17.4375C21.975 17.25 22.0875 17.025 22.1625 16.8375L20.7 15.75H22.6125C22.7625 15.2625 22.9125 14.775 23.025 14.25Z" fill="white"/>
<path d="M2.88757 18.6C3.18757 19.0125 3.48757 19.3875 3.82507 19.7625L8.25007 16.5375V15.7875H6.75007L2.88757 18.6Z" fill="#ED4C5C"/>
<path d="M17.0625 15.75L21.075 18.675C21.225 18.4875 21.3375 18.3 21.4875 18.1125C21.525 18.075 21.525 18.0375 21.5625 18.0375C21.675 17.85 21.825 17.625 21.9375 17.4375L19.575 15.75H17.0625Z" fill="#ED4C5C"/>
<path d="M15.75 1.38757V6.56257L19.6125 3.71257C18.525 2.70007 17.2125 1.91257 15.75 1.38757Z" fill="#2A5F9E"/>
<path d="M8.25007 1.38757C6.78757 1.91257 5.47507 2.70007 4.38757 3.71257L8.25007 6.60007V1.38757Z" fill="#2A5F9E"/>
<path d="M22.6126 8.2501C22.5001 7.8751 22.3501 7.5376 22.1626 7.1626L20.7001 8.2501H22.6126Z" fill="#2A5F9E"/>
<path d="M3.30007 8.2501L1.83757 7.1626C1.68757 7.5376 1.53757 7.8751 1.38757 8.2501H3.30007Z" fill="#2A5F9E"/>
<path d="M15.1875 9.74998H22.9875C22.875 9.22498 22.725 8.73748 22.575 8.24998H20.6625L22.125 7.16248C21.825 6.52498 21.4875 5.96248 21.075 5.39998L17.25 8.24998H15.75V7.49998L20.1375 4.27498L19.6125 3.74998L15.75 6.56248V1.38748C15.2625 1.19998 14.775 1.08748 14.25 0.974976V9.74998H15.1875Z" fill="white"/>
<path d="M0.975098 9.74998H9.7501V0.974976C9.2251 1.08748 8.7376 1.23748 8.2501 1.38748V6.56248L4.3876 3.74998C3.8626 4.23748 3.4126 4.76248 2.9626 5.32498L6.9751 8.24998H4.4251L2.1376 6.56248C2.0251 6.74998 1.9126 6.97498 1.8376 7.16248L3.3001 8.24998H1.3876C1.2376 8.73748 1.0876 9.22498 0.975098 9.74998Z" fill="white"/>
<path d="M21.1125 5.39993C20.8125 4.98743 20.5125 4.61243 20.175 4.23743L15.75 7.46243V8.21243H17.25L21.1125 5.39993Z" fill="#ED4C5C"/>
<path d="M6.9376 8.25008L2.9626 5.32507C2.8126 5.51257 2.7001 5.70007 2.5501 5.88757C2.5126 5.92507 2.5126 5.96257 2.4751 5.96257C2.3626 6.15007 2.2126 6.37507 2.1001 6.56257L4.3876 8.25008H6.9376Z" fill="#ED4C5C"/>
<path d="M23.025 9.75H14.25V0.975C13.5375 0.825 12.7875 0.75 12 0.75C11.2125 0.75 10.4625 0.825 9.75 0.975V9.75H0.975C0.825 10.4625 0.75 11.2125 0.75 12C0.75 12.7875 0.825 13.5375 0.975 14.25H9.75V23.025C10.4625 23.175 11.2125 23.25 12 23.25C12.7875 23.25 13.5375 23.175 14.25 23.025V14.25H23.025C23.175 13.5375 23.25 12.7875 23.25 12C23.25 11.2125 23.175 10.4625 23.025 9.75Z" fill="#ED4C5C"/>
</svg>
